<?xml version="1.0" encoding="UTF-8" standalone="no"?>
<svg
   xmlns:dc="http://purl.org/dc/elements/1.1/"
   xmlns:cc="http://creativecommons.org/ns#"
   xmlns:rdf="http://www.w3.org/1999/02/22-rdf-syntax-ns#"
   xmlns:svg="http://www.w3.org/2000/svg"
   xmlns="http://www.w3.org/2000/svg"
   xmlns:sodipodi="http://sodipodi.sourceforge.net/DTD/sodipodi-0.dtd"
   xmlns:inkscape="http://www.inkscape.org/namespaces/inkscape"
   sodipodi:docname="circle-diffuser.svg"
   inkscape:version="1.0 (4035a4fb49, 2020-05-01)"
   id="svg8"
   version="1.1"
   viewBox="0 0 210 297"
   height="297mm"
   width="210mm">
  <defs
     id="defs2">
    <marker
       style="overflow:visible"
       refY="0.0"
       refX="0.0"
       orient="auto"
       id="DistanceX">
      <path
         id="path833"
         style="stroke:#000000; stroke-width:0.5"
         d="M 3,-3 L -3,3 M 0,-5 L  0,5" />
    </marker>
    <pattern
       y="0"
       x="0"
       height="8"
       width="8"
       patternUnits="userSpaceOnUse"
       id="Hatch">
      <path
         id="path836"
         linecap="square"
         stroke-width="0.25"
         stroke="#000000"
         d="M8 4 l-4,4" />
      <path
         id="path838"
         linecap="square"
         stroke-width="0.25"
         stroke="#000000"
         d="M6 2 l-4,4" />
      <path
         id="path840"
         linecap="square"
         stroke-width="0.25"
         stroke="#000000"
         d="M4 0 l-4,4" />
    </pattern>
    <symbol
       id="*MODEL_SPACE" />
    <symbol
       id="*PAPER_SPACE" />
    <marker
       style="overflow:visible"
       refY="0.0"
       refX="0.0"
       orient="auto"
       id="DistanceX-3">
      <path
         id="path1124"
         style="stroke:#000000; stroke-width:0.5"
         d="M 3,-3 L -3,3 M 0,-5 L  0,5" />
    </marker>
    <pattern
       y="0"
       x="0"
       height="8"
       width="8"
       patternUnits="userSpaceOnUse"
       id="Hatch-5">
      <path
         id="path1127"
         linecap="square"
         stroke-width="0.25"
         stroke="#000000"
         d="M8 4 l-4,4" />
      <path
         id="path1129"
         linecap="square"
         stroke-width="0.25"
         stroke="#000000"
         d="M6 2 l-4,4" />
      <path
         id="path1131"
         linecap="square"
         stroke-width="0.25"
         stroke="#000000"
         d="M4 0 l-4,4" />
    </pattern>
    <symbol
       id="*MODEL_SPACE-2" />
    <symbol
       id="*PAPER_SPACE-9" />
    <marker
       style="overflow:visible"
       refY="0.0"
       refX="0.0"
       orient="auto"
       id="DistanceX-6">
      <path
         id="path1172"
         style="stroke:#000000; stroke-width:0.5"
         d="M 3,-3 L -3,3 M 0,-5 L  0,5" />
    </marker>
    <pattern
       y="0"
       x="0"
       height="8"
       width="8"
       patternUnits="userSpaceOnUse"
       id="Hatch-1">
      <path
         id="path1175"
         linecap="square"
         stroke-width="0.25"
         stroke="#000000"
         d="M8 4 l-4,4" />
      <path
         id="path1177"
         linecap="square"
         stroke-width="0.25"
         stroke="#000000"
         d="M6 2 l-4,4" />
      <path
         id="path1179"
         linecap="square"
         stroke-width="0.25"
         stroke="#000000"
         d="M4 0 l-4,4" />
    </pattern>
    <symbol
       id="*MODEL_SPACE-1" />
    <symbol
       id="*PAPER_SPACE-8" />
    <clipPath
       clipPathUnits="userSpaceOnUse"
       id="clipPath1577">
      <path
         id="path1579"
         style="opacity:0.506452;fill:#000000;fill-opacity:1;stroke:#ff0000;stroke-width:0.1;stroke-miterlimit:4;stroke-dasharray:none;stroke-opacity:1"
         d="m 90.22085,107.8885 -16.738512,16.738 v 65.04357 l 7.478096,7.4781 -7.478096,7.4781 v 65.0441 l 16.738512,16.73799 h 65.04357 l 16.738,-16.73799 v -65.0441 l -7.4781,-7.4781 7.4781,-7.4781 V 124.6265 l -16.738,-16.738 z m 0.521415,17.25993 h 64.000225 v 63.99971 H 90.742265 Z m 0,79.99977 h 64.000225 v 64.00023 H 90.742265 Z" />
    </clipPath>
    <clipPath
       clipPathUnits="userSpaceOnUse"
       id="clipPath1583">
      <path
         id="path1585"
         style="fill:#000000;fill-opacity:1;stroke:#ff0000;stroke-width:0.1;stroke-miterlimit:4;stroke-dasharray:none;stroke-opacity:1"
         d="m 49.166867,121.59984 a 14.5,14.5 0 1 0 -28.999999,0 14.5,14.5 0 1 0 28.999999,0 z" />
    </clipPath>
  </defs>
  <sodipodi:namedview
     id="base"
     pagecolor="#ffffff"
     bordercolor="#666666"
     borderopacity="1.0"
     inkscape:pageopacity="0.0"
     inkscape:pageshadow="2"
     inkscape:zoom="0.99999996"
     inkscape:cx="636.62489"
     inkscape:cy="268.27245"
     inkscape:document-units="mm"
     inkscape:current-layer="layer1"
     inkscape:document-rotation="0"
     showgrid="false"
     inkscape:window-width="2560"
     inkscape:window-height="1377"
     inkscape:window-x="1072"
     inkscape:window-y="-8"
     inkscape:window-maximized="1" />
  <metadata
     id="metadata5">
    <rdf:RDF>
      <cc:Work
         rdf:about="">
        <dc:format>image/svg+xml</dc:format>
        <dc:type
           rdf:resource="http://purl.org/dc/dcmitype/StillImage" />
        <dc:title></dc:title>
      </cc:Work>
    </rdf:RDF>
  </metadata>
  <g
     inkscape:label="Layer 1"
     inkscape:groupmode="layer"
     id="layer1">
    <path
       d="m 116.37104,59.422754 a 14.5,14.5 0 1 0 -29.000002,0 14.5,14.5 0 1 0 29.000002,0 z"
       style="fill:none;stroke:#ff0000;stroke-width:0.1;stroke-miterlimit:4;stroke-dasharray:none;stroke-opacity:1"
       id="path1138" />
    <path
       transform="translate(67.20417,-62.177086)"
       d="m 20.116867,107.04984 v 29.09999 m 0.529167,-29.09999 v 29.09999 m 0.529167,-29.09999 v 29.09999 m 0.529166,-29.09999 v 29.09999 m 0.529167,-29.09999 v 29.09999 m 0.529167,-29.09999 v 29.09999 m 0.529166,-29.09999 v 29.09999 m 0.529167,-29.09999 v 29.09999 m 0.529167,-29.09999 v 29.09999 m 0.529166,-29.09999 v 29.09999 m 0.529167,-29.09999 v 29.09999 m 0.529167,-29.09999 v 29.09999 m 0.529166,-29.09999 v 29.09999 m 0.529167,-29.09999 v 29.09999 m 0.529167,-29.09999 v 29.09999 m 0.529166,-29.09999 v 29.09999 m 0.529167,-29.09999 v 29.09999 m 0.529167,-29.09999 v 29.09999 m 0.529166,-29.09999 v 29.09999 m 0.529167,-29.09999 v 29.09999 m 0.529167,-29.09999 v 29.09999 m 0.529166,-29.09999 v 29.09999 m 0.529167,-29.09999 v 29.09999 M 32.2877,107.04984 v 29.09999 m 0.529167,-29.09999 v 29.09999 m 0.529167,-29.09999 v 29.09999 M 33.8752,107.04984 v 29.09999 m 0.529167,-29.09999 v 29.09999 m 0.529167,-29.09999 v 29.09999 M 35.4627,107.04984 v 29.09999 m 0.529167,-29.09999 v 29.09999 m 0.529167,-29.09999 v 29.09999 M 37.0502,107.04984 v 29.09999 m 0.529167,-29.09999 v 29.09999 m 0.529167,-29.09999 v 29.09999 M 38.6377,107.04984 v 29.09999 m 0.529167,-29.09999 v 29.09999 m 0.529167,-29.09999 v 29.09999 M 40.2252,107.04984 v 29.09999 m 0.529167,-29.09999 v 29.09999 m 0.529167,-29.09999 v 29.09999 M 41.8127,107.04984 v 29.09999 m 0.529167,-29.09999 v 29.09999 m 0.529167,-29.09999 v 29.09999 M 43.4002,107.04984 v 29.09999 m 0.529167,-29.09999 v 29.09999 m 0.529167,-29.09999 v 29.09999 M 44.9877,107.04984 v 29.09999 m 0.529167,-29.09999 v 29.09999 m 0.529166,-29.09999 v 29.09999 M 46.5752,107.04984 v 29.09999 m 0.529167,-29.09999 v 29.09999 m 0.529166,-29.09999 v 29.09999 M 48.1627,107.04984 v 29.09999 m 0.529167,-29.09999 v 29.09999 m -28.575,-29.09999 h 29.1 m -29.1,0.52917 h 29.1 m -29.1,0.52917 h 29.1 m -29.1,0.52916 h 29.1 m -29.1,0.52917 h 29.1 m -29.1,0.52917 h 29.1 m -29.1,0.52916 h 29.1 m -29.1,0.52917 h 29.1 m -29.1,0.52917 h 29.1 m -29.1,0.52916 h 29.1 m -29.1,0.52917 h 29.1 m -29.1,0.52917 h 29.1 m -29.1,0.52916 h 29.1 m -29.1,0.52917 h 29.1 m -29.1,0.52917 h 29.1 m -29.1,0.52916 h 29.1 m -29.1,0.52917 h 29.1 m -29.1,0.52917 h 29.1 m -29.1,0.52916 h 29.1 m -29.1,0.52917 h 29.1 m -29.1,0.52917 h 29.1 m -29.1,0.52916 h 29.1 m -29.1,0.52917 h 29.1 m -29.1,0.52917 h 29.1 m -29.1,0.52916 h 29.1 m -29.1,0.52917 h 29.1 m -29.1,0.52917 h 29.1 m -29.1,0.52916 h 29.1 m -29.1,0.52917 h 29.1 m -29.1,0.52917 h 29.1 m -29.1,0.52916 h 29.1 m -29.1,0.52917 h 29.1 m -29.1,0.52917 h 29.1 m -29.1,0.52916 h 29.1 m -29.1,0.52917 h 29.1 m -29.1,0.52917 h 29.1 m -29.1,0.52916 h 29.1 m -29.1,0.52917 h 29.1 m -29.1,0.52917 h 29.1 m -29.1,0.52916 h 29.1 m -29.1,0.52917 h 29.1 m -29.1,0.52917 h 29.1 m -29.1,0.52916 h 29.1 m -29.1,0.52917 h 29.1 m -29.1,0.52917 h 29.1 m -29.1,0.52916 h 29.1 m -29.1,0.52917 h 29.1 m -29.1,0.52917 h 29.1 m -29.1,0.52916 h 29.1 m -29.1,0.52917 h 29.1 m -29.1,0.52917 h 29.1 m -29.1,0.52916 h 29.1 m -29.1,0.52917 h 29.1 m -29.1,0.52917 h 29.1 m -29.1,0.52916 h 29.1"
       style="fill:none;stroke:#0000ff;stroke-width:0.0264583px;stroke-opacity:1"
       id="path1543"
       clip-path="url(#clipPath1583)" />
  </g>
</svg>
