<?xml version="1.0" encoding="UTF-8" standalone="no"?>
<svg
   xmlns:dc="http://purl.org/dc/elements/1.1/"
   xmlns:cc="http://creativecommons.org/ns#"
   xmlns:rdf="http://www.w3.org/1999/02/22-rdf-syntax-ns#"
   xmlns:svg="http://www.w3.org/2000/svg"
   xmlns="http://www.w3.org/2000/svg"
   xmlns:sodipodi="http://sodipodi.sourceforge.net/DTD/sodipodi-0.dtd"
   xmlns:inkscape="http://www.inkscape.org/namespaces/inkscape"
   width="210mm"
   height="297mm"
   viewBox="0 0 210 297"
   version="1.1"
   id="svg8"
   inkscape:version="1.0 (4035a4fb49, 2020-05-01)"
   sodipodi:docname="digit-diffuser.svg">
  <defs
     id="defs2">
    <marker
       id="DistanceX"
       orient="auto"
       refX="0.0"
       refY="0.0"
       style="overflow:visible">
      <path
         d="M 3,-3 L -3,3 M 0,-5 L  0,5"
         style="stroke:#000000; stroke-width:0.5"
         id="path833" />
    </marker>
    <pattern
       id="Hatch"
       patternUnits="userSpaceOnUse"
       width="8"
       height="8"
       x="0"
       y="0">
      <path
         d="M8 4 l-4,4"
         stroke="#000000"
         stroke-width="0.25"
         linecap="square"
         id="path836" />
      <path
         d="M6 2 l-4,4"
         stroke="#000000"
         stroke-width="0.25"
         linecap="square"
         id="path838" />
      <path
         d="M4 0 l-4,4"
         stroke="#000000"
         stroke-width="0.25"
         linecap="square"
         id="path840" />
    </pattern>
    <symbol
       id="*MODEL_SPACE" />
    <symbol
       id="*PAPER_SPACE" />
    <marker
       id="DistanceX-3"
       orient="auto"
       refX="0.0"
       refY="0.0"
       style="overflow:visible">
      <path
         d="M 3,-3 L -3,3 M 0,-5 L  0,5"
         style="stroke:#000000; stroke-width:0.5"
         id="path1124" />
    </marker>
    <pattern
       id="Hatch-5"
       patternUnits="userSpaceOnUse"
       width="8"
       height="8"
       x="0"
       y="0">
      <path
         d="M8 4 l-4,4"
         stroke="#000000"
         stroke-width="0.25"
         linecap="square"
         id="path1127" />
      <path
         d="M6 2 l-4,4"
         stroke="#000000"
         stroke-width="0.25"
         linecap="square"
         id="path1129" />
      <path
         d="M4 0 l-4,4"
         stroke="#000000"
         stroke-width="0.25"
         linecap="square"
         id="path1131" />
    </pattern>
    <symbol
       id="*MODEL_SPACE-2" />
    <symbol
       id="*PAPER_SPACE-9" />
    <marker
       id="DistanceX-6"
       orient="auto"
       refX="0.0"
       refY="0.0"
       style="overflow:visible">
      <path
         d="M 3,-3 L -3,3 M 0,-5 L  0,5"
         style="stroke:#000000; stroke-width:0.5"
         id="path1172" />
    </marker>
    <pattern
       id="Hatch-1"
       patternUnits="userSpaceOnUse"
       width="8"
       height="8"
       x="0"
       y="0">
      <path
         d="M8 4 l-4,4"
         stroke="#000000"
         stroke-width="0.25"
         linecap="square"
         id="path1175" />
      <path
         d="M6 2 l-4,4"
         stroke="#000000"
         stroke-width="0.25"
         linecap="square"
         id="path1177" />
      <path
         d="M4 0 l-4,4"
         stroke="#000000"
         stroke-width="0.25"
         linecap="square"
         id="path1179" />
    </pattern>
    <symbol
       id="*MODEL_SPACE-1" />
    <symbol
       id="*PAPER_SPACE-8" />
    <clipPath
       id="clipPath1577"
       clipPathUnits="userSpaceOnUse">
      <path
         d="m 90.22085,107.8885 -16.738512,16.738 v 65.04357 l 7.478096,7.4781 -7.478096,7.4781 v 65.0441 l 16.738512,16.73799 h 65.04357 l 16.738,-16.73799 v -65.0441 l -7.4781,-7.4781 7.4781,-7.4781 V 124.6265 l -16.738,-16.738 z m 0.521415,17.25993 h 64.000225 v 63.99971 H 90.742265 Z m 0,79.99977 h 64.000225 v 64.00023 H 90.742265 Z"
         style="opacity:0.506452;fill:#000000;fill-opacity:1;stroke:#ff0000;stroke-width:0.1;stroke-miterlimit:4;stroke-dasharray:none;stroke-opacity:1"
         id="path1579" />
    </clipPath>
    <clipPath
       id="clipPath1583"
       clipPathUnits="userSpaceOnUse">
      <path
         d="m 49.166867,121.59984 a 14.5,14.5 0 1 0 -28.999999,0 14.5,14.5 0 1 0 28.999999,0 z"
         style="fill:#000000;fill-opacity:1;stroke:#ff0000;stroke-width:0.1;stroke-miterlimit:4;stroke-dasharray:none;stroke-opacity:1"
         id="path1585" />
    </clipPath>
  </defs>
  <sodipodi:namedview
     inkscape:window-maximized="1"
     inkscape:window-y="-8"
     inkscape:window-x="1072"
     inkscape:window-height="1377"
     inkscape:window-width="2560"
     showgrid="false"
     inkscape:document-rotation="0"
     inkscape:current-layer="layer1"
     inkscape:document-units="mm"
     inkscape:cy="501.87694"
     inkscape:cx="581.39822"
     inkscape:zoom="1.4142135"
     inkscape:pageshadow="2"
     inkscape:pageopacity="0.0"
     borderopacity="1.0"
     bordercolor="#666666"
     pagecolor="#ffffff"
     id="base" />
  <metadata
     id="metadata5">
    <rdf:RDF>
      <cc:Work
         rdf:about="">
        <dc:format>image/svg+xml</dc:format>
        <dc:type
           rdf:resource="http://purl.org/dc/dcmitype/StillImage" />
        <dc:title />
      </cc:Work>
    </rdf:RDF>
  </metadata>
  <g
     id="layer1"
     inkscape:groupmode="layer"
     inkscape:label="Layer 1">
    <g
       style="fill:none;stroke:#ff0000;stroke-width:0.377953;stroke-miterlimit:4;stroke-dasharray:none;stroke-opacity:1"
       transform="matrix(0.26458333,0,0,0.26458333,217.39159,-180.28478)"
       inkscape:label="0"
       id="g1192">
      <path
         d="M -294.78387,1092.2827 V 850.3929 h -241.88976 v 241.8898 z"
         style="fill:none;stroke:#ff0000;stroke-width:0.377953;stroke-miterlimit:4;stroke-dasharray:none;stroke-opacity:1"
         id="path1186" />
      <path
         d="m -294.78387,1394.6449 v -241.8898 h -241.88976 v 241.8898 z"
         style="fill:none;stroke:#ff0000;stroke-width:0.377953;stroke-miterlimit:4;stroke-dasharray:none;stroke-opacity:1"
         id="path1188" />
      <path
         d="m -538.6462,785.15826 h 245.8349 l 63.26208,63.26207 v 245.83487 l -28.26365,28.2637 28.26365,28.2636 v 245.8349 l -63.26208,63.2621 h -245.8349 l -63.26208,-63.2621 v -245.8349 l 28.26365,-28.2636 -28.26365,-28.2637 V 848.42033 Z"
         style="fill:none;stroke:#ff0000;stroke-width:0.377953;stroke-miterlimit:4;stroke-dasharray:none;stroke-opacity:1"
         id="path1190" />
    </g>
    <path
       transform="translate(-15.345834,-80.433337)"
       clip-path="url(#clipPath1577)"
       id="path1545"
       style="fill:none;stroke:#0000ff;stroke-width:0.0264583px;stroke-opacity:1"
       d="m 73.432518,107.83834 v 178.61999 m 0.529167,-178.61999 v 178.61999 m 0.529166,-178.61999 v 178.61999 m 0.529167,-178.61999 v 178.61999 m 0.529167,-178.61999 v 178.61999 m 0.529166,-178.61999 v 178.61999 m 0.529167,-178.61999 v 178.61999 m 0.529167,-178.61999 v 178.61999 m 0.529166,-178.61999 v 178.61999 m 0.529167,-178.61999 v 178.61999 m 0.529167,-178.61999 v 178.61999 m 0.529166,-178.61999 v 178.61999 m 0.529167,-178.61999 v 178.61999 m 0.529167,-178.61999 v 178.61999 m 0.529166,-178.61999 v 178.61999 m 0.529167,-178.61999 v 178.61999 m 0.529167,-178.61999 v 178.61999 m 0.529166,-178.61999 v 178.61999 m 0.529167,-178.61999 v 178.61999 m 0.529167,-178.61999 v 178.61999 m 0.529166,-178.61999 v 178.61999 m 0.529167,-178.61999 v 178.61999 m 0.529166,-178.61999 v 178.61999 m 0.529167,-178.61999 v 178.61999 m 0.529167,-178.61999 v 178.61999 m 0.529166,-178.61999 v 178.61999 m 0.529167,-178.61999 v 178.61999 m 0.529167,-178.61999 v 178.61999 m 0.529166,-178.61999 v 178.61999 m 0.529167,-178.61999 v 178.61999 m 0.529167,-178.61999 v 178.61999 m 0.529166,-178.61999 v 178.61999 m 0.529167,-178.61999 v 178.61999 m 0.529167,-178.61999 v 178.61999 m 0.529166,-178.61999 v 178.61999 m 0.529167,-178.61999 v 178.61999 m 0.529167,-178.61999 v 178.61999 m 0.529166,-178.61999 v 178.61999 m 0.529167,-178.61999 v 178.61999 m 0.529167,-178.61999 v 178.61999 m 0.529166,-178.61999 v 178.61999 m 0.529163,-178.61999 v 178.61999 m 0.52917,-178.61999 v 178.61999 m 0.52917,-178.61999 v 178.61999 m 0.52916,-178.61999 v 178.61999 m 0.52917,-178.61999 v 178.61999 m 0.52917,-178.61999 v 178.61999 m 0.52916,-178.61999 v 178.61999 m 0.52917,-178.61999 v 178.61999 m 0.52917,-178.61999 v 178.61999 m 0.52916,-178.61999 v 178.61999 m 0.529173,-178.61999 v 178.61999 m 0.52917,-178.61999 v 178.61999 m 0.52916,-178.61999 v 178.61999 m 0.52917,-178.61999 v 178.61999 m 0.52917,-178.61999 v 178.61999 m 0.52916,-178.61999 v 178.61999 m 0.52917,-178.61999 v 178.61999 m 0.52917,-178.61999 v 178.61999 m 0.52916,-178.61999 v 178.61999 m 0.52917,-178.61999 v 178.61999 m 0.52917,-178.61999 v 178.61999 m 0.52916,-178.61999 v 178.61999 m 0.52917,-178.61999 v 178.61999 m 0.52917,-178.61999 v 178.61999 m 0.52916,-178.61999 v 178.61999 m 0.52917,-178.61999 v 178.61999 m 0.52917,-178.61999 v 178.61999 m 0.52916,-178.61999 v 178.61999 m 0.52917,-178.61999 v 178.61999 m 0.52917,-178.61999 v 178.61999 m 0.52916,-178.61999 v 178.61999 m 0.52917,-178.61999 v 178.61999 m 0.52917,-178.61999 v 178.61999 m 0.52916,-178.61999 v 178.61999 m 0.52917,-178.61999 v 178.61999 m 0.52917,-178.61999 v 178.61999 m 0.52916,-178.61999 v 178.61999 m 0.52917,-178.61999 v 178.61999 m 0.52917,-178.61999 v 178.61999 m 0.52916,-178.61999 v 178.61999 m 0.52917,-178.61999 v 178.61999 m 0.52917,-178.61999 v 178.61999 m 0.52916,-178.61999 v 178.61999 m 0.52917,-178.61999 v 178.61999 m 0.52917,-178.61999 v 178.61999 m 0.52916,-178.61999 v 178.61999 m 0.52917,-178.61999 v 178.61999 m 0.52917,-178.61999 v 178.61999 m 0.52916,-178.61999 v 178.61999 m 0.52917,-178.61999 v 178.61999 m 0.52917,-178.61999 v 178.61999 m 0.52916,-178.61999 v 178.61999 m 0.52917,-178.61999 v 178.61999 m 0.52917,-178.61999 v 178.61999 m 0.52916,-178.61999 v 178.61999 m 0.52917,-178.61999 v 178.61999 m 0.52917,-178.61999 v 178.61999 m 0.52916,-178.61999 v 178.61999 m 0.52917,-178.61999 v 178.61999 m 0.52917,-178.61999 v 178.61999 m 0.52916,-178.61999 v 178.61999 m 0.52917,-178.61999 v 178.61999 m 0.52917,-178.61999 v 178.61999 m 0.52916,-178.61999 v 178.61999 m 0.52917,-178.61999 v 178.61999 m 0.52917,-178.61999 v 178.61999 m 0.52916,-178.61999 v 178.61999 m 0.52917,-178.61999 v 178.61999 m 0.52917,-178.61999 v 178.61999 m 0.52916,-178.61999 v 178.61999 m 0.52917,-178.61999 v 178.61999 m 0.52917,-178.61999 v 178.61999 m 0.52916,-178.61999 v 178.61999 m 0.52917,-178.61999 v 178.61999 m 0.52917,-178.61999 v 178.61999 m 0.52916,-178.61999 v 178.61999 m 0.52917,-178.61999 v 178.61999 m 0.52917,-178.61999 v 178.61999 m 0.52916,-178.61999 v 178.61999 m 0.52917,-178.61999 v 178.61999 m 0.52917,-178.61999 v 178.61999 m 0.52916,-178.61999 v 178.61999 m 0.52917,-178.61999 v 178.61999 m 0.52917,-178.61999 v 178.61999 m 0.52916,-178.61999 v 178.61999 m 0.52917,-178.61999 v 178.61999 m 0.52917,-178.61999 v 178.61999 m 0.52916,-178.61999 v 178.61999 m 0.52917,-178.61999 v 178.61999 m 0.52917,-178.61999 v 178.61999 m 0.52916,-178.61999 v 178.61999 m 0.52917,-178.61999 v 178.61999 m 0.52917,-178.61999 v 178.61999 m 0.52916,-178.61999 v 178.61999 m 0.52917,-178.61999 v 178.61999 m 0.52917,-178.61999 v 178.61999 m 0.52916,-178.61999 v 178.61999 m 0.52917,-178.61999 v 178.61999 m 0.52917,-178.61999 v 178.61999 m 0.52916,-178.61999 v 178.61999 m 0.52917,-178.61999 v 178.61999 m 0.52917,-178.61999 v 178.61999 m 0.52916,-178.61999 v 178.61999 m 0.52917,-178.61999 v 178.61999 m 0.52917,-178.61999 v 178.61999 m 0.52916,-178.61999 v 178.61999 m 0.52917,-178.61999 v 178.61999 m 0.52917,-178.61999 v 178.61999 m 0.52916,-178.61999 v 178.61999 m 0.52917,-178.61999 v 178.61999 m 0.52917,-178.61999 v 178.61999 m 0.52916,-178.61999 v 178.61999 m 0.52917,-178.61999 v 178.61999 m 0.52917,-178.61999 v 178.61999 m 0.52916,-178.61999 v 178.61999 m 0.52917,-178.61999 v 178.61999 m 0.52917,-178.61999 v 178.61999 m 0.52916,-178.61999 v 178.61999 m 0.52917,-178.61999 v 178.61999 m 0.52917,-178.61999 v 178.61999 m 0.52916,-178.61999 v 178.61999 m 0.52917,-178.61999 v 178.61999 m 0.52917,-178.61999 v 178.61999 m 0.52916,-178.61999 v 178.61999 m 0.52917,-178.61999 v 178.61999 m 0.52917,-178.61999 v 178.61999 m 0.52916,-178.61999 v 178.61999 m 0.52917,-178.61999 v 178.61999 m 0.52917,-178.61999 v 178.61999 m 0.52916,-178.61999 v 178.61999 m 0.52917,-178.61999 v 178.61999 m 0.52917,-178.61999 v 178.61999 m 0.52916,-178.61999 v 178.61999 m 0.52917,-178.61999 v 178.61999 m 0.52917,-178.61999 v 178.61999 m 0.52916,-178.61999 v 178.61999 m 0.52917,-178.61999 v 178.61999 m 0.52917,-178.61999 v 178.61999 m 0.52916,-178.61999 v 178.61999 m 0.52917,-178.61999 v 178.61999 m 0.52917,-178.61999 v 178.61999 m 0.52916,-178.61999 v 178.61999 m 0.52917,-178.61999 v 178.61999 m 0.52917,-178.61999 v 178.61999 m 0.52916,-178.61999 v 178.61999 m 0.52917,-178.61999 V 286.45833 M 73.432518,107.83834 h 98.620002 m -98.620002,0.52917 h 98.620002 m -98.620002,0.52916 h 98.620002 m -98.620002,0.52917 h 98.620002 m -98.620002,0.52917 h 98.620002 m -98.620002,0.52916 h 98.620002 m -98.620002,0.52917 h 98.620002 m -98.620002,0.52917 h 98.620002 m -98.620002,0.52916 h 98.620002 m -98.620002,0.52917 h 98.620002 m -98.620002,0.52917 h 98.620002 m -98.620002,0.52916 h 98.620002 m -98.620002,0.52917 h 98.620002 m -98.620002,0.52917 h 98.620002 m -98.620002,0.52916 h 98.620002 m -98.620002,0.52917 h 98.620002 m -98.620002,0.52917 h 98.620002 m -98.620002,0.52916 h 98.620002 m -98.620002,0.52917 h 98.620002 m -98.620002,0.52917 h 98.620002 m -98.620002,0.52916 h 98.620002 m -98.620002,0.52917 h 98.620002 m -98.620002,0.52917 h 98.620002 m -98.620002,0.52916 h 98.620002 m -98.620002,0.52917 h 98.620002 m -98.620002,0.52917 h 98.620002 m -98.620002,0.52916 h 98.620002 m -98.620002,0.52917 h 98.620002 m -98.620002,0.52917 h 98.620002 m -98.620002,0.52916 h 98.620002 m -98.620002,0.52917 h 98.620002 m -98.620002,0.52917 h 98.620002 m -98.620002,0.52916 h 98.620002 m -98.620002,0.52917 h 98.620002 m -98.620002,0.52917 h 98.620002 m -98.620002,0.52916 h 98.620002 m -98.620002,0.52917 h 98.620002 m -98.620002,0.52917 h 98.620002 m -98.620002,0.52916 h 98.620002 m -98.620002,0.52917 h 98.620002 m -98.620002,0.52917 h 98.620002 m -98.620002,0.52916 h 98.620002 m -98.620002,0.52917 h 98.620002 m -98.620002,0.52917 h 98.620002 m -98.620002,0.52916 h 98.620002 m -98.620002,0.52917 h 98.620002 m -98.620002,0.52917 h 98.620002 m -98.620002,0.52916 h 98.620002 m -98.620002,0.52917 h 98.620002 m -98.620002,0.52917 h 98.620002 m -98.620002,0.52916 h 98.620002 m -98.620002,0.52917 h 98.620002 m -98.620002,0.52917 h 98.620002 m -98.620002,0.52916 h 98.620002 m -98.620002,0.52917 h 98.620002 m -98.620002,0.52917 h 98.620002 m -98.620002,0.52916 h 98.620002 m -98.620002,0.52917 h 98.620002 m -98.620002,0.52917 h 98.620002 m -98.620002,0.52916 h 98.620002 m -98.620002,0.52917 h 98.620002 m -98.620002,0.52917 h 98.620002 m -98.620002,0.52916 h 98.620002 m -98.620002,0.52917 h 98.620002 m -98.620002,0.52917 h 98.620002 m -98.620002,0.52916 h 98.620002 m -98.620002,0.52917 h 98.620002 m -98.620002,0.52917 h 98.620002 m -98.620002,0.52916 h 98.620002 m -98.620002,0.52917 h 98.620002 m -98.620002,0.52917 h 98.620002 m -98.620002,0.52916 h 98.620002 m -98.620002,0.52917 h 98.620002 m -98.620002,0.52917 h 98.620002 m -98.620002,0.52916 h 98.620002 m -98.620002,0.52917 h 98.620002 m -98.620002,0.52917 h 98.620002 m -98.620002,0.52916 h 98.620002 m -98.620002,0.52917 h 98.620002 m -98.620002,0.52917 h 98.620002 m -98.620002,0.52916 h 98.620002 m -98.620002,0.52917 h 98.620002 m -98.620002,0.52917 h 98.620002 m -98.620002,0.52916 h 98.620002 m -98.620002,0.52917 h 98.620002 m -98.620002,0.52917 h 98.620002 m -98.620002,0.52916 h 98.620002 m -98.620002,0.52917 h 98.620002 m -98.620002,0.52917 h 98.620002 m -98.620002,0.52916 h 98.620002 m -98.620002,0.52917 h 98.620002 m -98.620002,0.52917 h 98.620002 m -98.620002,0.52916 h 98.620002 m -98.620002,0.52917 h 98.620002 m -98.620002,0.52917 h 98.620002 m -98.620002,0.52916 h 98.620002 m -98.620002,0.52917 h 98.620002 m -98.620002,0.52917 h 98.620002 m -98.620002,0.52916 h 98.620002 m -98.620002,0.52917 h 98.620002 m -98.620002,0.52917 h 98.620002 m -98.620002,0.52916 h 98.620002 m -98.620002,0.52917 h 98.620002 m -98.620002,0.52917 h 98.620002 m -98.620002,0.52916 h 98.620002 m -98.620002,0.52917 h 98.620002 m -98.620002,0.52917 h 98.620002 m -98.620002,0.52916 h 98.620002 m -98.620002,0.52917 h 98.620002 m -98.620002,0.52917 h 98.620002 m -98.620002,0.52916 h 98.620002 m -98.620002,0.52917 H 172.05252 M 73.432518,167.105 h 98.620002 m -98.620002,0.52917 h 98.620002 m -98.620002,0.52917 h 98.620002 m -98.620002,0.52916 h 98.620002 m -98.620002,0.52917 h 98.620002 m -98.620002,0.52917 H 172.05252 M 73.432518,170.28 h 98.620002 m -98.620002,0.52917 h 98.620002 m -98.620002,0.52917 h 98.620002 m -98.620002,0.52916 h 98.620002 m -98.620002,0.52917 h 98.620002 m -98.620002,0.52917 H 172.05252 M 73.432518,173.455 h 98.620002 m -98.620002,0.52917 h 98.620002 m -98.620002,0.52917 h 98.620002 m -98.620002,0.52916 h 98.620002 m -98.620002,0.52917 h 98.620002 m -98.620002,0.52917 H 172.05252 M 73.432518,176.63 h 98.620002 m -98.620002,0.52917 h 98.620002 m -98.620002,0.52917 h 98.620002 m -98.620002,0.52916 h 98.620002 m -98.620002,0.52917 h 98.620002 m -98.620002,0.52917 H 172.05252 M 73.432518,179.805 h 98.620002 m -98.620002,0.52917 h 98.620002 m -98.620002,0.52917 h 98.620002 m -98.620002,0.52916 h 98.620002 m -98.620002,0.52917 h 98.620002 m -98.620002,0.52917 H 172.05252 M 73.432518,182.98 h 98.620002 m -98.620002,0.52917 h 98.620002 m -98.620002,0.52917 h 98.620002 m -98.620002,0.52916 h 98.620002 m -98.620002,0.52917 h 98.620002 m -98.620002,0.52917 H 172.05252 M 73.432518,186.155 h 98.620002 m -98.620002,0.52917 h 98.620002 m -98.620002,0.52917 h 98.620002 m -98.620002,0.52916 h 98.620002 m -98.620002,0.52917 h 98.620002 m -98.620002,0.52917 H 172.05252 M 73.432518,189.33 h 98.620002 m -98.620002,0.52917 h 98.620002 m -98.620002,0.52917 h 98.620002 m -98.620002,0.52916 h 98.620002 m -98.620002,0.52917 h 98.620002 m -98.620002,0.52917 H 172.05252 M 73.432518,192.505 h 98.620002 m -98.620002,0.52917 h 98.620002 m -98.620002,0.52917 h 98.620002 m -98.620002,0.52916 h 98.620002 m -98.620002,0.52917 h 98.620002 m -98.620002,0.52917 H 172.05252 M 73.432518,195.68 h 98.620002 m -98.620002,0.52917 h 98.620002 m -98.620002,0.52917 h 98.620002 m -98.620002,0.52916 h 98.620002 m -98.620002,0.52917 h 98.620002 m -98.620002,0.52917 H 172.05252 M 73.432518,198.855 h 98.620002 m -98.620002,0.52917 h 98.620002 m -98.620002,0.52917 h 98.620002 m -98.620002,0.52916 h 98.620002 m -98.620002,0.52917 h 98.620002 m -98.620002,0.52917 H 172.05252 M 73.432518,202.03 h 98.620002 m -98.620002,0.52917 h 98.620002 m -98.620002,0.52917 h 98.620002 m -98.620002,0.52916 h 98.620002 m -98.620002,0.52917 h 98.620002 m -98.620002,0.52917 H 172.05252 M 73.432518,205.205 h 98.620002 m -98.620002,0.52917 h 98.620002 m -98.620002,0.52917 h 98.620002 m -98.620002,0.52916 h 98.620002 m -98.620002,0.52917 h 98.620002 m -98.620002,0.52917 H 172.05252 M 73.432518,208.38 h 98.620002 m -98.620002,0.52917 h 98.620002 m -98.620002,0.52917 h 98.620002 m -98.620002,0.52916 h 98.620002 m -98.620002,0.52917 h 98.620002 m -98.620002,0.52917 H 172.05252 M 73.432518,211.555 h 98.620002 m -98.620002,0.52917 h 98.620002 m -98.620002,0.52917 h 98.620002 m -98.620002,0.52916 h 98.620002 m -98.620002,0.52917 h 98.620002 m -98.620002,0.52917 H 172.05252 M 73.432518,214.73 h 98.620002 m -98.620002,0.52917 h 98.620002 m -98.620002,0.52917 h 98.620002 m -98.620002,0.52916 h 98.620002 m -98.620002,0.52917 h 98.620002 m -98.620002,0.52917 H 172.05252 M 73.432518,217.905 h 98.620002 m -98.620002,0.52917 h 98.620002 m -98.620002,0.52917 h 98.620002 m -98.620002,0.52916 h 98.620002 m -98.620002,0.52917 h 98.620002 m -98.620002,0.52917 H 172.05252 M 73.432518,221.08 h 98.620002 m -98.620002,0.52917 h 98.620002 m -98.620002,0.52917 h 98.620002 m -98.620002,0.52916 h 98.620002 m -98.620002,0.52917 h 98.620002 m -98.620002,0.52917 H 172.05252 M 73.432518,224.255 h 98.620002 m -98.620002,0.52917 h 98.620002 m -98.620002,0.52917 h 98.620002 m -98.620002,0.52916 h 98.620002 m -98.620002,0.52917 h 98.620002 m -98.620002,0.52917 H 172.05252 M 73.432518,227.43 h 98.620002 m -98.620002,0.52917 h 98.620002 m -98.620002,0.52917 h 98.620002 m -98.620002,0.52916 h 98.620002 m -98.620002,0.52917 h 98.620002 m -98.620002,0.52917 H 172.05252 M 73.432518,230.605 h 98.620002 m -98.620002,0.52917 h 98.620002 m -98.620002,0.52917 h 98.620002 m -98.620002,0.52916 h 98.620002 m -98.620002,0.52917 h 98.620002 m -98.620002,0.52917 H 172.05252 M 73.432518,233.78 h 98.620002 m -98.620002,0.52917 h 98.620002 m -98.620002,0.52917 h 98.620002 m -98.620002,0.52916 h 98.620002 m -98.620002,0.52917 h 98.620002 m -98.620002,0.52917 H 172.05252 M 73.432518,236.955 h 98.620002 m -98.620002,0.52917 h 98.620002 m -98.620002,0.52917 h 98.620002 m -98.620002,0.52916 h 98.620002 m -98.620002,0.52917 h 98.620002 m -98.620002,0.52917 H 172.05252 M 73.432518,240.13 h 98.620002 m -98.620002,0.52917 h 98.620002 m -98.620002,0.52917 h 98.620002 m -98.620002,0.52916 h 98.620002 m -98.620002,0.52917 h 98.620002 m -98.620002,0.52917 H 172.05252 M 73.432518,243.305 h 98.620002 m -98.620002,0.52917 h 98.620002 m -98.620002,0.52917 h 98.620002 m -98.620002,0.52916 h 98.620002 m -98.620002,0.52917 h 98.620002 m -98.620002,0.52917 H 172.05252 M 73.432518,246.48 h 98.620002 m -98.620002,0.52917 h 98.620002 m -98.620002,0.52917 h 98.620002 m -98.620002,0.52916 h 98.620002 m -98.620002,0.52917 h 98.620002 m -98.620002,0.52917 H 172.05252 M 73.432518,249.655 h 98.620002 m -98.620002,0.52917 h 98.620002 m -98.620002,0.52917 h 98.620002 m -98.620002,0.52916 h 98.620002 m -98.620002,0.52917 h 98.620002 m -98.620002,0.52917 H 172.05252 M 73.432518,252.83 h 98.620002 m -98.620002,0.52917 h 98.620002 m -98.620002,0.52917 h 98.620002 m -98.620002,0.52916 h 98.620002 m -98.620002,0.52917 h 98.620002 m -98.620002,0.52917 H 172.05252 M 73.432518,256.005 h 98.620002 m -98.620002,0.52917 h 98.620002 m -98.620002,0.52917 h 98.620002 m -98.620002,0.52916 h 98.620002 m -98.620002,0.52917 h 98.620002 m -98.620002,0.52917 H 172.05252 M 73.432518,259.18 h 98.620002 m -98.620002,0.52917 h 98.620002 m -98.620002,0.52917 h 98.620002 m -98.620002,0.52916 h 98.620002 m -98.620002,0.52917 h 98.620002 m -98.620002,0.52917 H 172.05252 M 73.432518,262.355 h 98.620002 m -98.620002,0.52917 h 98.620002 m -98.620002,0.52917 h 98.620002 m -98.620002,0.52916 h 98.620002 m -98.620002,0.52917 h 98.620002 m -98.620002,0.52917 H 172.05252 M 73.432518,265.53 h 98.620002 m -98.620002,0.52917 h 98.620002 m -98.620002,0.52917 h 98.620002 m -98.620002,0.52916 h 98.620002 m -98.620002,0.52917 h 98.620002 m -98.620002,0.52917 H 172.05252 M 73.432518,268.705 h 98.620002 m -98.620002,0.52917 h 98.620002 m -98.620002,0.52917 h 98.620002 m -98.620002,0.52916 h 98.620002 m -98.620002,0.52917 h 98.620002 m -98.620002,0.52917 H 172.05252 M 73.432518,271.88 h 98.620002 m -98.620002,0.52917 h 98.620002 m -98.620002,0.52917 h 98.620002 m -98.620002,0.52916 h 98.620002 m -98.620002,0.52917 h 98.620002 m -98.620002,0.52917 H 172.05252 M 73.432518,275.055 h 98.620002 m -98.620002,0.52917 h 98.620002 m -98.620002,0.52917 h 98.620002 m -98.620002,0.52916 h 98.620002 m -98.620002,0.52917 h 98.620002 m -98.620002,0.52917 H 172.05252 M 73.432518,278.23 h 98.620002 m -98.620002,0.52917 h 98.620002 m -98.620002,0.52917 h 98.620002 m -98.620002,0.52916 h 98.620002 m -98.620002,0.52917 h 98.620002 m -98.620002,0.52917 H 172.05252 M 73.432518,281.405 h 98.620002 m -98.620002,0.52917 h 98.620002 m -98.620002,0.52917 h 98.620002 m -98.620002,0.52916 h 98.620002 m -98.620002,0.52917 h 98.620002 m -98.620002,0.52917 H 172.05252 M 73.432518,284.58 h 98.620002 m -98.620002,0.52917 h 98.620002 m -98.620002,0.52917 h 98.620002 m -98.620002,0.52916 h 98.620002" />
  </g>
</svg>
